<?xml version="1.0" encoding="UTF-8"?>
<svg width="16px" height="16px" viewBox="0 0 16 16" version="1.1" xmlns="http://www.w3.org/2000/svg" xmlns:xlink="http://www.w3.org/1999/xlink">
    <!-- Generator: Sketch 47 (45396) - http://www.bohemiancoding.com/sketch -->
    <title>cart</title>
    <desc>Created with Sketch.</desc>
    <defs></defs>
    <g id="Page-1" stroke="none" stroke-width="1" fill="none" fill-rule="evenodd">
        <g id="Artboard" transform="translate(-956.000000, -24.000000)" fill-rule="nonzero" fill="#A6BDD2">
            <g id="cart" transform="translate(956.000000, 24.000000)">
                <path d="M13,11 L3,11 C2.447,11 2,10.552 2,10 L2,2 L0,2 L0,0 L3,0 C3.553,0 4,0.448 4,1 L4,2 L15,2 C15.937,2 16.048,2.973 15.962,3.275 L13.962,10.275 C13.839,10.704 13.446,11 13,11 Z M4,9 L12.246,9 L13.674,4 L4,4 L4,9 Z" id="Shape"></path>
                <circle id="Oval" cx="3" cy="14" r="2"></circle>
                <circle id="Oval" cx="13" cy="14" r="2"></circle>
            </g>
        </g>
    </g>
</svg>